<svg width="18" height="16" viewBox="0 0 18 16" fill="none" xmlns="http://www.w3.org/2000/svg">
<path fill-rule="evenodd" clip-rule="evenodd" d="M0.500058 7.99994C0.500058 8.28173 0.611999 8.55198 0.811256 8.75124C1.01051 8.9505 1.28077 9.06244 1.56256 9.06244H13.8727L9.31031 13.6227C9.21152 13.7215 9.13316 13.8387 9.07969 13.9678C9.02623 14.0969 8.99871 14.2352 8.99871 14.3749C8.99871 14.5146 9.02623 14.653 9.07969 14.782C9.13316 14.9111 9.21152 15.0284 9.31031 15.1272C9.40909 15.226 9.52637 15.3043 9.65544 15.3578C9.78451 15.4113 9.92285 15.4388 10.0626 15.4388C10.2023 15.4388 10.3406 15.4113 10.4697 15.3578C10.5987 15.3043 10.716 15.226 10.8148 15.1272L17.1898 8.75219C17.2888 8.65349 17.3673 8.53624 17.4208 8.40716C17.4744 8.27807 17.502 8.13969 17.502 7.99994C17.502 7.86018 17.4744 7.7218 17.4208 7.59271C17.3673 7.46363 17.2888 7.34638 17.1898 7.24769L10.8148 0.872688C10.6153 0.673179 10.3447 0.561096 10.0626 0.561096C9.78041 0.561096 9.50981 0.673179 9.31031 0.872688C9.1108 1.0722 8.99871 1.34279 8.99871 1.62494C8.99871 1.90709 9.1108 2.17768 9.31031 2.37719L13.8727 6.93744H1.56256C1.28077 6.93744 1.01051 7.04938 0.811256 7.24864C0.611999 7.44789 0.500058 7.71814 0.500058 7.99994Z" fill="#48546D"/>
</svg>
