<svg width="18" height="16" viewBox="0 0 18 16" fill="none" xmlns="http://www.w3.org/2000/svg">
<path fill-rule="evenodd" clip-rule="evenodd" d="M17.4999 7.99994C17.4999 8.28173 17.388 8.55198 17.1887 8.75124C16.9895 8.95049 16.7192 9.06244 16.4374 9.06244H4.12732L8.68969 13.6227C8.78848 13.7215 8.86684 13.8387 8.92031 13.9678C8.97377 14.0969 9.00129 14.2352 9.00129 14.3749C9.00129 14.5146 8.97377 14.653 8.92031 14.782C8.86684 14.9111 8.78848 15.0284 8.68969 15.1272C8.59091 15.226 8.47363 15.3043 8.34456 15.3578C8.21549 15.4113 8.07715 15.4388 7.93744 15.4388C7.79774 15.4388 7.6594 15.4113 7.53033 15.3578C7.40126 15.3043 7.28398 15.226 7.18519 15.1272L0.810196 8.75219C0.711249 8.65349 0.632745 8.53624 0.579182 8.40716C0.525618 8.27807 0.498047 8.13969 0.498047 7.99994C0.498047 7.86018 0.525618 7.7218 0.579182 7.59271C0.632745 7.46363 0.711249 7.34638 0.810196 7.24769L7.18519 0.872688C7.3847 0.673179 7.6553 0.561096 7.93744 0.561096C8.21959 0.561096 8.49019 0.673179 8.68969 0.872688C8.8892 1.0722 9.00129 1.34279 9.00129 1.62494C9.00129 1.90709 8.8892 2.17768 8.68969 2.37719L4.12732 6.93744H16.4374C16.7192 6.93744 16.9895 7.04938 17.1887 7.24864C17.388 7.44789 17.4999 7.71814 17.4999 7.99994Z" fill="#6F7A93"/>
</svg>
